<?xml version="1.0" encoding="UTF-8" standalone="no"?>
<!-- Created with Inkscape (http://www.inkscape.org/) -->

<svg
   xmlns:dc="http://purl.org/dc/elements/1.1/"
   xmlns:cc="http://creativecommons.org/ns#"
   xmlns:rdf="http://www.w3.org/1999/02/22-rdf-syntax-ns#"
   xmlns:svg="http://www.w3.org/2000/svg"
   xmlns="http://www.w3.org/2000/svg"
   xmlns:xlink="http://www.w3.org/1999/xlink"
   xmlns:sodipodi="http://sodipodi.sourceforge.net/DTD/sodipodi-0.dtd"
   xmlns:inkscape="http://www.inkscape.org/namespaces/inkscape"
   width="120"
   height="120"
   id="svg2"
   version="1.1"
   inkscape:version="0.47 r22583"
   sodipodi:docname="icon_src.svg"
   inkscape:export-filename="icon.png"
   inkscape:export-xdpi="90"
   inkscape:export-ydpi="90">
  <defs
     id="defs4">
    <linearGradient
       id="linearGradient3614">
      <stop
         style="stop-color:#bababa;stop-opacity:0.89473683;"
         offset="0"
         id="stop3616" />
      <stop
         style="stop-color:#bababa;stop-opacity:0.46842104;"
         offset="1"
         id="stop3618" />
    </linearGradient>
    <inkscape:perspective
       sodipodi:type="inkscape:persp3d"
       inkscape:vp_x="0 : 526.18109 : 1"
       inkscape:vp_y="0 : 1000 : 0"
       inkscape:vp_z="744.09448 : 526.18109 : 1"
       inkscape:persp3d-origin="372.04724 : 350.78739 : 1"
       id="perspective10" />
    <filter
       inkscape:collect="always"
       id="filter3590"
       color-interpolation-filters="sRGB">
      <feGaussianBlur
         inkscape:collect="always"
         stdDeviation="0.43039318"
         id="feGaussianBlur3592" />
    </filter>
    <radialGradient
       inkscape:collect="always"
       xlink:href="#linearGradient3614"
       id="radialGradient3620"
       cx="43.497253"
       cy="46.510761"
       fx="43.497253"
       fy="46.510761"
       r="36.687046"
       gradientTransform="matrix(1,0,0,0.99706934,0,0.13630719)"
       gradientUnits="userSpaceOnUse" />
    <filter
       inkscape:collect="always"
       id="filter3918"
       x="-0.11503119"
       width="1.2300624"
       y="-0.1153693"
       height="1.2307386"
       color-interpolation-filters="sRGB">
      <feGaussianBlur
         inkscape:collect="always"
         stdDeviation="3.5167955"
         id="feGaussianBlur3920" />
    </filter>
    <filter
       inkscape:collect="always"
       id="filter4001"
       x="-0.079918437"
       width="1.1598369"
       y="-0.15624301"
       height="1.3124861"
       color-interpolation-filters="sRGB">
      <feGaussianBlur
         inkscape:collect="always"
         stdDeviation="0.72901677"
         id="feGaussianBlur4003" />
    </filter>
    <inkscape:perspective
       id="perspective4015"
       inkscape:persp3d-origin="0.5 : 0.33333333 : 1"
       inkscape:vp_z="1 : 0.5 : 1"
       inkscape:vp_y="0 : 1000 : 0"
       inkscape:vp_x="0 : 0.5 : 1"
       sodipodi:type="inkscape:persp3d" />
    <filter
       inkscape:collect="always"
       id="filter3644"
       x="-0.19167685"
       width="1.3833537"
       y="-0.24763478"
       height="1.4952696">
      <feGaussianBlur
         inkscape:collect="always"
         stdDeviation="2.1373241"
         id="feGaussianBlur3646" />
    </filter>
    <filter
       inkscape:collect="always"
       id="filter3674"
       x="-0.27708561"
       width="1.5541712"
       y="-0.21745965"
       height="1.4349193">
      <feGaussianBlur
         inkscape:collect="always"
         stdDeviation="1.8076795"
         id="feGaussianBlur3676" />
    </filter>
    <filter
       inkscape:collect="always"
       id="filter3688"
       x="-0.44112388"
       width="1.8822478"
       y="-0.59255447"
       height="2.1851089">
      <feGaussianBlur
         inkscape:collect="always"
         stdDeviation="5.9079091"
         id="feGaussianBlur3690" />
    </filter>
  </defs>
  <sodipodi:namedview
     id="base"
     pagecolor="#ffffff"
     bordercolor="#666666"
     borderopacity="1.0"
     inkscape:pageopacity="0.0"
     inkscape:pageshadow="2"
     inkscape:zoom="1.4"
     inkscape:cx="-186.78457"
     inkscape:cy="174.60295"
     inkscape:document-units="px"
     inkscape:current-layer="layer1"
     showgrid="false"
     inkscape:window-width="1378"
     inkscape:window-height="878"
     inkscape:window-x="54"
     inkscape:window-y="-8"
     inkscape:window-maximized="1" />
  <metadata
     id="metadata7">
    <rdf:RDF>
      <cc:Work
         rdf:about="">
        <dc:format>image/svg+xml</dc:format>
        <dc:type
           rdf:resource="http://purl.org/dc/dcmitype/StillImage" />
        <dc:title></dc:title>
      </cc:Work>
    </rdf:RDF>
  </metadata>
  <g
     inkscape:label="Layer 1"
     inkscape:groupmode="layer"
     id="layer1"
     transform="translate(0,-932.36218)">
    <rect
       style="fill:#2a2a2a;fill-opacity:1;stroke:#212121;stroke-width:2;stroke-linejoin:round;stroke-miterlimit:4;stroke-opacity:1;stroke-dasharray:none;filter:url(#filter3590)"
       id="rect2816"
       width="86.078636"
       height="86.078636"
       x="1.9606801"
       y="964.32288"
       rx="3.8257174"
       ry="3.8257172"
       transform="matrix(1.3283145,0,0,1.3283145,0.09598869,-345.60177)" />
    <path
       style="opacity:0.23346304;fill:url(#radialGradient3620);fill-opacity:1;stroke:none;filter:url(#filter3918)"
       d="M 40.153564,9.9454107 C 76.266517,20.046936 87.883272,58.937809 75.256365,69.796949 62.629458,80.656089 19.697975,87.22208 17.67767,80.151013 15.657364,73.079945 2.7779195,31.158614 8.0812204,26.865466 13.384521,22.572318 36.61803,9.4403344 40.153564,9.9454107 z"
       id="path3612"
       transform="matrix(1.2686215,0,0,1.2686215,7.568912,933.63042)" />
    <path
       style="opacity:0.08560311;fill:#dbdbdb;fill-opacity:1;stroke:none;filter:url(#filter4001)"
       d="m 66.505276,1.4700641 18.62174,0.4017857 c 0,0 1.314306,0.5336038 1.835389,0.9948335 0.505194,0.4471655 1.173405,1.6491574 1.173405,1.6491574 l 0.260198,8.1512443 c 0,0 0.668328,-11.3309495 -21.890732,-11.1970209 z"
       id="path3931"
       transform="matrix(1.3283145,0,0,1.3283145,0.09598869,932.71788)"
       sodipodi:nodetypes="ccsccc" />
    <path
       sodipodi:nodetypes="ccsccc"
       transform="matrix(-1.3283145,0,0,-1.3283145,119.85639,1051.7475)"
       id="path3624"
       d="m 66.505276,1.4700641 18.62174,0.4017857 c 0,0 1.314306,0.5336038 1.835389,0.9948335 0.505194,0.4471655 1.173405,1.6491574 1.173405,1.6491574 l 0.260198,8.1512443 c 0,0 0.668328,-11.3309495 -21.890732,-11.1970209 z"
       style="opacity:0.3618677;fill:#000000;fill-opacity:1;stroke:none;filter:url(#filter4001)" />
    <path
       style="opacity:0.12840467;fill:#bcbf00;fill-opacity:0.36529678999999998;stroke:none;filter:url(#filter3644)"
       d="m 13.928571,1015.9336 6.25,13.0357 c 0,0 11.071429,7.6786 11.964286,7.6786 0.892857,0 9.821429,-5.1786 8.392857,-5.1786 -1.428571,0 -8.75,-1.25 -8.75,-1.25 l -4.821428,-9.6428 -13.035715,-4.6429 z"
       id="path3626" />
    <path
       style="opacity:0.17120623;fill:#9a6d00;fill-opacity:1;stroke:none;filter:url(#filter3674)"
       d="m 85.750927,963.98435 13.889596,4.54568 1.767767,15.40483 -5.050761,-9.34391 c 0,0 1.262694,-3.78807 0.252538,-4.29315 -1.010153,-0.50508 -10.101526,-6.31345 -10.85914,-6.31345 z"
       id="path3648" />
    <path
       style="fill:#9a6500;stroke:none;stroke-width:1px;stroke-linecap:butt;stroke-linejoin:miter;stroke-opacity:1;fill-opacity:1;opacity:0.27626459;filter:url(#filter3688)"
       d="M 53.571429,50 42.5,57.5 l 7.142857,10.714286 4.285714,5.714285 4.642858,-8.571428 16.071428,3.571428 c 0,0 -1.428571,-12.5 -2.857143,-12.5 C 70.357143,56.428571 54.285714,50 53.571429,50 z"
       id="path3678"
       transform="translate(0,932.36218)" />
    <path
       sodipodi:nodetypes="cc"
       id="path3600"
       d="m 7.8113404,992.19671 105.6667596,0"
       style="fill:none;stroke:#f1f1f1;stroke-width:5.385;stroke-linecap:round;stroke-linejoin:miter;stroke-miterlimit:4;stroke-opacity:1;stroke-dasharray:none" />
    <path
       style="fill:none;stroke:#f1f1f1;stroke-width:5.385;stroke-linecap:round;stroke-linejoin:miter;stroke-miterlimit:4;stroke-opacity:1;stroke-dasharray:none"
       d="m 60.165472,941.35765 0,105.66685"
       id="path3610"
       sodipodi:nodetypes="cc" />
    <path
       sodipodi:type="arc"
       style="fill:none;stroke:#ffffff;stroke-width:2.00014278;stroke-miterlimit:4;stroke-opacity:1;stroke-dasharray:none"
       id="path4005"
       sodipodi:cx="35"
       sodipodi:cy="33.214287"
       sodipodi:rx="6.4285712"
       sodipodi:ry="6.4285712"
       d="m 41.428571,33.214287 a 6.4285712,6.4285712 0 1 1 -12.857142,0 6.4285712,6.4285712 0 1 1 12.857142,0 z"
       transform="matrix(2.6923078,0,0,2.6923078,-62.46005,874.26773)" />
    <g
       id="g4039"
       transform="matrix(3.8627115,0,0,3.8627115,-130.69918,-2799.7079)">
      <path
         style="fill:none;stroke:#ffffff;stroke-width:1.78400004;stroke-linecap:round;stroke-linejoin:miter;stroke-miterlimit:4;stroke-opacity:1;stroke-dasharray:none"
         d="m 52.500004,984.86218 8.57142,8.57143"
         id="path4041" />
      <path
         id="path4043"
         d="m 61.071424,984.86218 -8.57142,8.57143"
         style="fill:none;stroke:#ffffff;stroke-width:1.78400004;stroke-linecap:round;stroke-linejoin:miter;stroke-miterlimit:4;stroke-opacity:1;stroke-dasharray:none" />
    </g>
  </g>
</svg>
