<?xml version="1.0" encoding="UTF-8" standalone="no"?>
<!-- Created with Inkscape (http://www.inkscape.org/) -->

<svg
   xmlns:dc="http://purl.org/dc/elements/1.1/"
   xmlns:cc="http://creativecommons.org/ns#"
   xmlns:rdf="http://www.w3.org/1999/02/22-rdf-syntax-ns#"
   xmlns:svg="http://www.w3.org/2000/svg"
   xmlns="http://www.w3.org/2000/svg"
   xmlns:sodipodi="http://sodipodi.sourceforge.net/DTD/sodipodi-0.dtd"
   xmlns:inkscape="http://www.inkscape.org/namespaces/inkscape"
   width="256"
   height="134"
   id="svg2"
   version="1.1"
   inkscape:version="0.47 r22583"
   sodipodi:docname="m_vs_m_src.svg"
   inkscape:export-filename="m_vs_m.png"
   inkscape:export-xdpi="90"
   inkscape:export-ydpi="90">
  <defs
     id="defs4">
    <inkscape:perspective
       sodipodi:type="inkscape:persp3d"
       inkscape:vp_x="0 : 526.18109 : 1"
       inkscape:vp_y="0 : 1000 : 0"
       inkscape:vp_z="744.09448 : 526.18109 : 1"
       inkscape:persp3d-origin="372.04724 : 350.78739 : 1"
       id="perspective10" />
    <inkscape:perspective
       id="perspective2895"
       inkscape:persp3d-origin="0.5 : 0.33333333 : 1"
       inkscape:vp_z="1 : 0.5 : 1"
       inkscape:vp_y="0 : 1000 : 0"
       inkscape:vp_x="0 : 0.5 : 1"
       sodipodi:type="inkscape:persp3d" />
  </defs>
  <sodipodi:namedview
     id="base"
     pagecolor="#ffffff"
     bordercolor="#666666"
     borderopacity="1.0"
     inkscape:pageopacity="0.0"
     inkscape:pageshadow="2"
     inkscape:zoom="0.24748737"
     inkscape:cx="-175.32942"
     inkscape:cy="227.24002"
     inkscape:document-units="px"
     inkscape:current-layer="layer1"
     showgrid="false"
     showguides="true"
     inkscape:guide-bbox="true"
     inkscape:window-width="1378"
     inkscape:window-height="878"
     inkscape:window-x="54"
     inkscape:window-y="-8"
     inkscape:window-maximized="1" />
  <metadata
     id="metadata7">
    <rdf:RDF>
      <cc:Work
         rdf:about="">
        <dc:format>image/svg+xml</dc:format>
        <dc:type
           rdf:resource="http://purl.org/dc/dcmitype/StillImage" />
        <dc:title></dc:title>
      </cc:Work>
    </rdf:RDF>
  </metadata>
  <g
     inkscape:label="Layer 1"
     inkscape:groupmode="layer"
     id="layer1"
     transform="translate(0,-918.36218)">
    <g
       id="g3731"
       transform="translate(2,0)">
      <path
         id="path2947"
         style="font-size:127.14876556px;font-style:normal;font-weight:normal;fill:#000000;fill-opacity:1;stroke:none;font-family:ChopinScript;-inkscape-font-specification:ChopinScript"
         d="m 75.14618,1020.3287 c 0.58535,1.8552 1.66681,5.2944 3.24437,10.3178 1.57758,5.0233 2.32324,9.6247 2.23703,13.8039 -0.84189,-0.6829 -1.62648,-1.7521 -2.35375,-3.2079 -0.72726,-1.4557 -1.11445,-2.2692 -1.16159,-2.4407 -0.14358,0.021 -0.98108,0.044 -2.51249,0.068 -1.53142,0.024 -2.89521,-0.076 -4.09143,-0.2996 -0.77893,-0.3233 -1.46509,-1.7513 -2.05845,-4.2844 -0.5933,-2.5331 -1.12577,-5.3276 -1.5974,-8.3836 -0.47159,-3.0559 -0.9143,-5.5298 -1.32815,-7.4215 -0.44935,-3.6517 -1.31661,-7.2137 -2.34627,-10.741 -1.28428,-4.11 -2.76081,-8.86636 -4.42956,-14.26939 -1.6687,-5.40282 -3.11425,-10.15212 -4.3367,-14.24772 -1.22238,-4.09548 -1.80627,-6.23723 -1.75169,-6.42515 0.62232,0.21263 1.15819,0.69128 1.60784,1.43499 0.44969,0.74393 0.79483,1.34092 1.03535,1.79128 6.46138,11.88531 11.12228,21.51559 13.98269,28.89099 2.86046,7.3754 4.41568,11.4199 4.66567,12.1335 l 1.19453,3.2806 z"
         sodipodi:nodetypes="cscscscssccsscscscc" />
      <text
         xml:space="preserve"
         style="font-size:90.21169281px;font-style:normal;font-weight:normal;fill:#000000;fill-opacity:1;stroke:none;font-family:AngsanaUPC;-inkscape-font-specification:AngsanaUPC"
         x="19.309458"
         y="1043.2777"
         id="text2951"
         transform="scale(1.0713346,0.9334152)"><tspan
           sodipodi:role="line"
           id="tspan2953"
           x="19.309458"
           y="1043.2777">O</tspan></text>
      <path
         sodipodi:nodetypes="cscscscssccsscscscc"
         d="m 14.1447,1020.3287 c -0.58535,1.8552 -1.66681,5.2944 -3.24437,10.3178 -1.57758,5.0233 -2.32324,9.6247 -2.23703,13.8039 0.84189,-0.6829 1.62648,-1.7521 2.35375,-3.2079 0.72726,-1.4557 1.11445,-2.2692 1.16159,-2.4407 0.14358,0.021 0.98108,0.044 2.51249,0.068 1.53142,0.024 2.89521,-0.076 4.09143,-0.2996 0.77893,-0.3233 1.46509,-1.7513 2.05845,-4.2844 0.5933,-2.5331 1.12577,-5.3276 1.5974,-8.3836 0.47159,-3.0559 0.9143,-5.5298 1.32815,-7.4215 0.44935,-3.6517 1.31661,-7.2137 2.34627,-10.741 1.28428,-4.11 2.76081,-8.86636 4.42956,-14.26939 1.6687,-5.40282 3.11425,-10.15212 4.3367,-14.24772 1.22238,-4.09548 1.80627,-6.23723 1.75169,-6.42515 -0.62232,0.21263 -1.15819,0.69128 -1.60784,1.43499 -0.44969,0.74393 -0.79483,1.34092 -1.03535,1.79128 -6.46138,11.88531 -11.12228,21.51559 -13.98269,28.89099 -2.86046,7.3754 -4.41568,11.4199 -4.66567,12.1335 l -1.19453,3.2806 z"
         style="font-size:127.14876556px;font-style:normal;font-weight:normal;fill:#000000;fill-opacity:1;stroke:none;font-family:ChopinScript;-inkscape-font-specification:ChopinScript"
         id="path2955" />
      <path
         sodipodi:nodetypes="czcscsczc"
         transform="translate(0,918.36218)"
         id="path2957"
         d="m 44,56 c 0,0 -4,2.972257 -4,4 0,1.027743 4,4 4,4 0,0 -5.486387,10.707281 -4,16 0.506221,1.802548 4,3.943217 4,3.943217 0,0 3.493779,-2.140669 4,-3.943217 1.486387,-5.292719 -4,-16 -4,-16 0,0 4,-2.985575 4,-4 0,-1.014425 -4,-4 -4,-4 z"
         style="fill:#000000;fill-opacity:1;stroke:#000000;stroke-width:1px;stroke-linecap:butt;stroke-linejoin:miter;stroke-opacity:1" />
    </g>
    <g
       id="g3738"
       transform="translate(164.93617,0)">
      <path
         sodipodi:nodetypes="cscscscssccsscscscc"
         d="m 75.14618,1020.3287 c 0.58535,1.8552 1.66681,5.2944 3.24437,10.3178 1.57758,5.0233 2.32324,9.6247 2.23703,13.8039 -0.84189,-0.6829 -1.62648,-1.7521 -2.35375,-3.2079 -0.72726,-1.4557 -1.11445,-2.2692 -1.16159,-2.4407 -0.14358,0.021 -0.98108,0.044 -2.51249,0.068 -1.53142,0.024 -2.89521,-0.076 -4.09143,-0.2996 -0.77893,-0.3233 -1.46509,-1.7513 -2.05845,-4.2844 -0.5933,-2.5331 -1.12577,-5.3276 -1.5974,-8.3836 -0.47159,-3.0559 -0.9143,-5.5298 -1.32815,-7.4215 -0.44935,-3.6517 -1.31661,-7.2137 -2.34627,-10.741 -1.28428,-4.11 -2.76081,-8.86636 -4.42956,-14.26939 -1.6687,-5.40282 -3.11425,-10.15212 -4.3367,-14.24772 -1.22238,-4.09548 -1.80627,-6.23723 -1.75169,-6.42515 0.62232,0.21263 1.15819,0.69128 1.60784,1.43499 0.44969,0.74393 0.79483,1.34092 1.03535,1.79128 6.46138,11.88531 11.12228,21.51559 13.98269,28.89099 2.86046,7.3754 4.41568,11.4199 4.66567,12.1335 l 1.19453,3.2806 z"
         style="font-size:127.14876556px;font-style:normal;font-weight:normal;fill:#000000;fill-opacity:1;stroke:none;font-family:ChopinScript;-inkscape-font-specification:ChopinScript"
         id="path3740" />
      <text
         transform="scale(1.0713346,0.9334152)"
         id="text3742"
         y="1043.2777"
         x="19.309458"
         style="font-size:90.21169281px;font-style:normal;font-weight:normal;fill:#000000;fill-opacity:1;stroke:none;font-family:AngsanaUPC;-inkscape-font-specification:AngsanaUPC"
         xml:space="preserve"><tspan
           y="1043.2777"
           x="19.309458"
           id="tspan3744"
           sodipodi:role="line">O</tspan></text>
      <path
         id="path3746"
         style="font-size:127.14876556px;font-style:normal;font-weight:normal;fill:#000000;fill-opacity:1;stroke:none;font-family:ChopinScript;-inkscape-font-specification:ChopinScript"
         d="m 14.1447,1020.3287 c -0.58535,1.8552 -1.66681,5.2944 -3.24437,10.3178 -1.57758,5.0233 -2.32324,9.6247 -2.23703,13.8039 0.84189,-0.6829 1.62648,-1.7521 2.35375,-3.2079 0.72726,-1.4557 1.11445,-2.2692 1.16159,-2.4407 0.14358,0.021 0.98108,0.044 2.51249,0.068 1.53142,0.024 2.89521,-0.076 4.09143,-0.2996 0.77893,-0.3233 1.46509,-1.7513 2.05845,-4.2844 0.5933,-2.5331 1.12577,-5.3276 1.5974,-8.3836 0.47159,-3.0559 0.9143,-5.5298 1.32815,-7.4215 0.44935,-3.6517 1.31661,-7.2137 2.34627,-10.741 1.28428,-4.11 2.76081,-8.86636 4.42956,-14.26939 1.6687,-5.40282 3.11425,-10.15212 4.3367,-14.24772 1.22238,-4.09548 1.80627,-6.23723 1.75169,-6.42515 -0.62232,0.21263 -1.15819,0.69128 -1.60784,1.43499 -0.44969,0.74393 -0.79483,1.34092 -1.03535,1.79128 -6.46138,11.88531 -11.12228,21.51559 -13.98269,28.89099 -2.86046,7.3754 -4.41568,11.4199 -4.66567,12.1335 l -1.19453,3.2806 z"
         sodipodi:nodetypes="cscscscssccsscscscc" />
      <path
         style="fill:#000000;fill-opacity:1;stroke:#000000;stroke-width:1px;stroke-linecap:butt;stroke-linejoin:miter;stroke-opacity:1"
         d="m 44,56 c 0,0 -4,2.972257 -4,4 0,1.027743 4,4 4,4 0,0 -5.486387,10.707281 -4,16 0.506221,1.802548 4,3.943217 4,3.943217 0,0 3.493779,-2.140669 4,-3.943217 1.486387,-5.292719 -4,-16 -4,-16 0,0 4,-2.985575 4,-4 0,-1.014425 -4,-4 -4,-4 z"
         id="path3748"
         transform="translate(0,918.36218)"
         sodipodi:nodetypes="czcscsczc" />
    </g>
    <g
       id="g3754"
       transform="translate(-9.368655,2)">
      <path
         sodipodi:nodetypes="cccccssszccccc"
         d="m 123.14478,986.97818 c 0,0 2.63661,-0.0188 4.18285,0 l 26.65217,0 2.03312,0 23.91092,-0.13098 -7.89665,-1.0534 c -4.84561,-0.6464 -7.42947,-1.03472 -11.21786,-2.09676 -2.78948,-0.782 -7.32866,-2.6914 -8.40593,-3.3711 -1.66734,-1.05201 -3.24347,-2.69577 -4.39722,-4.12489 -1.15375,-1.42912 -3.61695,-4.73304 -3.61695,-4.73304 l 3.04936,10.45581 -21.39278,0.0224 c -1.79356,0.072 -4.69372,0 -4.69372,0 0,0 1.79269,5.03196 1.79269,5.03196 z"
         style="font-size:127.14876556px;font-style:normal;font-weight:normal;fill:#000000;fill-opacity:1;stroke:none;font-family:ChopinScript;-inkscape-font-specification:ChopinScript"
         id="path2873" />
      <path
         id="path3752"
         style="font-size:127.14876556px;font-style:normal;font-weight:normal;fill:#000000;fill-opacity:1;stroke:none;font-family:ChopinScript;-inkscape-font-specification:ChopinScript"
         d="m 151.56511,988.22563 c 0,0 -2.63661,0.0188 -4.18285,0 l -26.65217,0 -2.03312,0 -23.910878,0.13098 7.896608,1.0534 c 4.84561,0.6464 7.42947,1.03472 11.21786,2.09676 2.78948,0.782 7.32866,2.6914 8.40593,3.3711 1.66734,1.05201 3.24347,2.69577 4.39722,4.12489 1.15375,1.42914 3.61695,4.73304 3.61695,4.73304 l -3.04936,-10.45581 21.39278,-0.0224 c 1.79356,-0.072 4.69372,0 4.69372,0 0,0 -1.79269,-5.03196 -1.79269,-5.03196 z"
         sodipodi:nodetypes="cccccssszccccc" />
    </g>
  </g>
</svg>
